<svg height="37" viewBox="0 0 780 37" fill="none" xmlns="http://www.w3.org/2000/svg">
    <path opacity="0.2" d="M6.88633 35.85L6.76784 36.3358L6.77476 36.3374L6.88633 35.85ZM0.136328 33.2L-0.321015 32.9979L-0.496468 33.395L-0.127951 33.6244L0.136328 33.2ZM3.93633 24.6L4.18719 24.1675L3.70451 23.8875L3.47898 24.3979L3.93633 24.6ZM9.53633 26.95L9.39691 27.4302L9.40411 27.4322L9.53633 26.95ZM18.9863 27.35L19.1833 27.8096L19.1924 27.8057L19.2013 27.8014L18.9863 27.35ZM18.6363 24.25L18.4477 24.7131L18.4535 24.7154L18.6363 24.25ZM14.1363 23.05L14.0336 23.5393L14.0353 23.5397L14.1363 23.05ZM7.38633 21.25L7.21265 21.7189L7.22038 21.7217L7.38633 21.25ZM2.68633 18.05L2.3126 18.3822L2.31636 18.3863L2.68633 18.05ZM2.53633 6L2.94879 6.28261L2.94879 6.28261L2.53633 6ZM8.03633 1.75L7.84313 1.28882L7.84089 1.28977L8.03633 1.75ZM24.0363 0.999998L23.9234 1.48714L23.9316 1.4889L24.0363 0.999998ZM30.1863 3.25L30.6481 3.44173L30.8178 3.03292L30.4326 2.81487L30.1863 3.25ZM26.6363 11.8L26.411 12.2463L26.8916 12.489L27.0981 11.9917L26.6363 11.8ZM13.6863 13L13.4977 13.463L13.5051 13.4661L13.5127 13.4689L13.6863 13ZM18.1363 14.1L18.0413 14.5909L18.0442 14.5914L18.1363 14.1ZM24.8863 15.85L24.7154 16.32L24.7231 16.3226L24.8863 15.85ZM29.6363 19L29.2663 19.3364L29.2705 19.3409L29.6363 19ZM29.8363 31L30.2463 31.2862L30.2488 31.2826L29.8363 31ZM24.2863 35.25L24.4818 35.7102L24.4848 35.7089L24.2863 35.25ZM15.3863 36.3C12.5231 36.3 9.72718 35.9874 6.9979 35.3626L6.77476 36.3374C9.57881 36.9793 12.4496 37.3 15.3863 37.3V36.3ZM7.00481 35.3642C4.30613 34.706 2.10953 33.8396 0.400607 32.7756L-0.127951 33.6244C1.69646 34.7604 3.99986 35.6606 6.76785 36.3358L7.00481 35.3642ZM0.593671 33.4021L4.39367 24.8021L3.47898 24.3979L-0.321015 32.9979L0.593671 33.4021ZM3.68547 25.0325C5.39103 26.0217 7.29578 26.8202 9.39692 27.4302L9.67573 26.4698C7.64354 25.8798 5.81496 25.1116 4.18719 24.1675L3.68547 25.0325ZM9.40411 27.4322C11.5085 28.0092 13.5364 28.3 15.4863 28.3V27.3C13.6363 27.3 11.6975 27.0241 9.66855 26.4678L9.40411 27.4322ZM15.4863 28.3C17.1275 28.3 18.3829 28.1526 19.1833 27.8096L18.7894 26.8904C18.1897 27.1474 17.1119 27.3 15.4863 27.3V28.3ZM19.2013 27.8014C19.6049 27.6092 19.9422 27.3575 20.1788 27.0308C20.4195 26.6984 20.5363 26.3151 20.5363 25.9H19.5363C19.5363 26.1182 19.4782 26.2933 19.3689 26.4442C19.2555 26.6008 19.0677 26.7574 18.7714 26.8986L19.2013 27.8014ZM20.5363 25.9C20.5363 25.417 20.379 24.981 20.0676 24.614C19.7641 24.2563 19.3343 23.987 18.8192 23.7846L18.4535 24.7154C18.8717 24.8797 19.1419 25.0687 19.3051 25.261C19.4604 25.444 19.5363 25.6497 19.5363 25.9H20.5363ZM18.825 23.787C17.8792 23.4017 16.3404 22.9943 14.2374 22.5603L14.0353 23.5397C16.1323 23.9724 17.5934 24.365 18.4477 24.713L18.825 23.787ZM14.239 22.5607C11.5519 21.9967 9.32474 21.402 7.55228 20.7783L7.22038 21.7217C9.04792 22.3647 11.3207 22.97 14.0336 23.5393L14.239 22.5607ZM7.55999 20.7811C5.83759 20.1432 4.33758 19.1231 3.0563 17.7137L2.31636 18.3863C3.70175 19.9103 5.33506 21.0235 7.21267 21.7189L7.55999 20.7811ZM3.06003 17.7178C1.82771 16.3315 1.18633 14.4441 1.18633 12H0.186328C0.186328 14.6226 0.878276 16.7685 2.31262 18.3822L3.06003 17.7178ZM1.18633 12C1.18633 9.89999 1.77298 7.99867 2.94879 6.28261L2.12386 5.71738C0.833008 7.60133 0.186328 9.70001 0.186328 12H1.18633ZM2.94879 6.28261C4.11776 4.57655 5.86752 3.21421 8.23177 2.21022L7.84089 1.28977C5.33847 2.35245 3.42156 3.82345 2.12386 5.71738L2.94879 6.28261ZM8.22952 2.21117C10.6193 1.21005 13.5332 0.699999 16.9863 0.699999V-0.300001C13.4395 -0.300001 10.3867 0.223278 7.84314 1.28883L8.22952 2.21117ZM16.9863 0.699999C19.3489 0.699999 21.661 0.962471 23.9234 1.48707L24.1493 0.512921C21.8116 -0.0291403 19.4237 -0.300001 16.9863 -0.300001V0.699999ZM23.9316 1.4889C26.2237 1.98008 28.2245 2.71407 29.94 3.68513L30.4326 2.81487C28.6148 1.78593 26.5156 1.01992 24.1411 0.511096L23.9316 1.4889ZM29.7246 3.05827L26.1746 11.6083L27.0981 11.9917L30.6481 3.44173L29.7246 3.05827ZM26.8617 11.3537C23.3758 9.5938 20.0486 8.7 16.8863 8.7V9.7C19.8574 9.7 23.0302 10.5395 26.411 12.2463L26.8617 11.3537ZM16.8863 8.7C15.3454 8.7 14.1169 8.8837 13.2562 9.29986C12.819 9.51122 12.459 9.79108 12.209 10.1537C11.9563 10.5203 11.8363 10.9423 11.8363 11.4H12.8363C12.8363 11.1243 12.9059 10.9047 13.0324 10.7213C13.1615 10.5339 13.3703 10.3554 13.6915 10.2001C14.3475 9.88296 15.394 9.7 16.8863 9.7V8.7ZM11.8363 11.4C11.8363 11.8676 11.9903 12.2903 12.2917 12.6474C12.5853 12.9954 13.0005 13.2605 13.4977 13.463L13.875 12.537C13.4721 12.3728 13.2124 12.1879 13.056 12.0026C12.9073 11.8264 12.8363 11.6324 12.8363 11.4H11.8363ZM13.5127 13.4689C14.4539 13.8175 15.9717 14.1903 18.0413 14.5909L18.2313 13.6091C16.1676 13.2097 14.7188 12.8492 13.86 12.5311L13.5127 13.4689ZM18.0442 14.5914C20.6936 15.0882 22.9155 15.6654 24.7155 16.3199L25.0572 15.3801C23.1905 14.7013 20.9124 14.1118 18.2285 13.6086L18.0442 14.5914ZM24.7231 16.3226C26.4754 16.9279 27.9881 17.9303 29.2664 19.3363L30.0063 18.6637C28.6179 17.1364 26.964 16.0387 25.0496 15.3774L24.7231 16.3226ZM29.2705 19.3409C30.5299 20.6924 31.1863 22.5584 31.1863 25H32.1863C32.1863 22.3749 31.4761 20.241 30.0021 18.6591L29.2705 19.3409ZM31.1863 25C31.1863 27.1 30.5997 29.0013 29.4239 30.7174L30.2488 31.2826C31.5397 29.3987 32.1863 27.3 32.1863 25H31.1863ZM29.4264 30.7138C28.2578 32.3876 26.4903 33.7522 24.0879 34.7911L24.4848 35.7089C27.0157 34.6145 28.9482 33.1457 30.2463 31.2862L29.4264 30.7138ZM24.0909 34.7898C21.7359 35.7898 18.8398 36.3 15.3863 36.3V37.3C18.9328 37.3 21.9701 36.7768 24.4818 35.7102L24.0909 34.7898ZM63.9977 2.6L63.7946 3.0569L63.7946 3.0569L63.9977 2.6ZM69.5477 7.2L69.1284 7.47249L69.1284 7.47249L69.5477 7.2ZM69.5477 21.2L69.1284 20.9275L69.1284 20.9275L69.5477 21.2ZM63.9977 25.8L63.7946 25.3431L63.7946 25.3431L63.9977 25.8ZM50.4977 27.4V26.9H49.9977V27.4H50.4977ZM50.4977 36V36.5H50.9977V36H50.4977ZM38.6977 36H38.1977V36.5H38.6977V36ZM38.6977 0.999998V0.499998H38.1977V0.999998H38.6977ZM58.3977 17.25L58.727 17.6264L58.7355 17.6186L58.3977 17.25ZM58.3977 11.2L58.0597 11.5687L58.0684 11.5763L58.3977 11.2ZM50.4977 10.1V9.6H49.9977V10.1H50.4977ZM50.4977 18.3H49.9977V18.8H50.4977V18.3ZM55.5477 1.5C58.7268 1.5 61.4715 2.02442 63.7946 3.0569L64.2007 2.14309C61.7238 1.04224 58.8352 0.499998 55.5477 0.499998V1.5ZM63.7946 3.0569C66.1155 4.08842 67.8864 5.56168 69.1284 7.47249L69.9669 6.9275C68.6089 4.83832 66.6798 3.24491 64.2007 2.14309L63.7946 3.0569ZM69.1284 7.47249C70.3696 9.38203 70.9977 11.6183 70.9977 14.2H71.9977C71.9977 11.4484 71.3257 9.01796 69.9669 6.9275L69.1284 7.47249ZM70.9977 14.2C70.9977 16.7817 70.3696 19.018 69.1284 20.9275L69.9669 21.4725C71.3257 19.382 71.9977 16.9516 71.9977 14.2H70.9977ZM69.1284 20.9275C67.8864 22.8383 66.1155 24.3116 63.7946 25.3431L64.2007 26.2569C66.6798 25.1551 68.6089 23.5617 69.9669 21.4725L69.1284 20.9275ZM63.7946 25.3431C61.4715 26.3756 58.7268 26.9 55.5477 26.9V27.9C58.8352 27.9 61.7238 27.3578 64.2007 26.2569L63.7946 25.3431ZM55.5477 26.9H50.4977V27.9H55.5477V26.9ZM49.9977 27.4V36H50.9977V27.4H49.9977ZM50.4977 35.5H38.6977V36.5H50.4977V35.5ZM39.1977 36V0.999998H38.1977V36H39.1977ZM38.6977 1.5H55.5477V0.499998H38.6977V1.5ZM54.7977 18.8C56.4595 18.8 57.7993 18.4379 58.7269 17.6263L58.0684 16.8737C57.396 17.4621 56.3358 17.8 54.7977 17.8V18.8ZM58.7355 17.6186C59.6591 16.7719 60.0977 15.61 60.0977 14.2H59.0977C59.0977 15.39 58.7362 16.2614 58.0598 16.8814L58.7355 17.6186ZM60.0977 14.2C60.0977 12.7908 59.6592 11.6395 58.7269 10.8237L58.0684 11.5763C58.7361 12.1605 59.0977 13.0092 59.0977 14.2H60.0977ZM58.7355 10.8314C57.8078 9.98106 56.4645 9.6 54.7977 9.6V10.6C56.3308 10.6 57.3875 10.9523 58.0598 11.5686L58.7355 10.8314ZM54.7977 9.6H50.4977V10.6H54.7977V9.6ZM49.9977 10.1V18.3H50.9977V10.1H49.9977ZM50.4977 18.8H54.7977V17.8H50.4977V18.8ZM93.8676 27.2L94.2818 26.9199L94.1331 26.7H93.8676V27.2ZM90.6676 27.2V26.7H90.1676V27.2H90.6676ZM90.6676 36V36.5H91.1676V36H90.6676ZM78.8676 36H78.3676V36.5H78.8676V36ZM78.8676 0.999998V0.499998H78.3676V0.999998H78.8676ZM104.168 2.6L103.965 3.0569L103.965 3.0569L104.168 2.6ZM109.718 7.2L109.298 7.47249L109.298 7.47249L109.718 7.2ZM109.968 20.75L109.54 20.4905L109.54 20.4905L109.968 20.75ZM105.068 25.2L104.838 24.7556L104.336 25.0144L104.654 25.4813L105.068 25.2ZM112.418 36V36.5H113.363L112.831 35.7187L112.418 36ZM99.8176 36L99.4034 36.2801L99.5521 36.5H99.8176V36ZM98.5676 11.2L98.2296 11.5687L98.2383 11.5763L98.5676 11.2ZM90.6676 10.1V9.6H90.1676V10.1H90.6676ZM90.6676 18.3H90.1676V18.8H90.6676V18.3ZM98.5676 17.25L98.8969 17.6264L98.9054 17.6186L98.5676 17.25ZM93.8676 26.7H90.6676V27.7H93.8676V26.7ZM90.1676 27.2V36H91.1676V27.2H90.1676ZM90.6676 35.5H78.8676V36.5H90.6676V35.5ZM79.3676 36V0.999998H78.3676V36H79.3676ZM78.8676 1.5H95.7176V0.499998H78.8676V1.5ZM95.7176 1.5C98.8967 1.5 101.641 2.02442 103.965 3.0569L104.371 2.14309C101.894 1.04224 99.0051 0.499998 95.7176 0.499998V1.5ZM103.965 3.0569C106.285 4.08842 108.056 5.56168 109.298 7.47249L110.137 6.9275C108.779 4.83832 106.85 3.24491 104.371 2.14309L103.965 3.0569ZM109.298 7.47249C110.54 9.38203 111.168 11.6183 111.168 14.2H112.168C112.168 11.4484 111.496 9.01796 110.137 6.9275L109.298 7.47249ZM111.168 14.2C111.168 16.622 110.619 18.7129 109.54 20.4905L110.395 21.0095C111.582 19.0538 112.168 16.778 112.168 14.2H111.168ZM109.54 20.4905C108.459 22.2708 106.898 23.6935 104.838 24.7556L105.297 25.6444C107.504 24.5065 109.209 22.9626 110.395 21.0095L109.54 20.4905ZM104.654 25.4813L112.004 36.2813L112.831 35.7187L105.481 24.9187L104.654 25.4813ZM112.418 35.5H99.8176V36.5H112.418V35.5ZM100.232 35.7199L94.2818 26.9199L93.4534 27.4801L99.4034 36.2801L100.232 35.7199ZM100.268 14.2C100.268 12.7908 99.8291 11.6395 98.8968 10.8237L98.2383 11.5763C98.906 12.1605 99.2676 13.0092 99.2676 14.2H100.268ZM98.9054 10.8314C97.9778 9.98106 96.6344 9.6 94.9676 9.6V10.6C96.5008 10.6 97.5574 10.9523 98.2297 11.5686L98.9054 10.8314ZM94.9676 9.6H90.6676V10.6H94.9676V9.6ZM90.1676 10.1V18.3H91.1676V10.1H90.1676ZM90.6676 18.8H94.9676V17.8H90.6676V18.8ZM94.9676 18.8C96.6295 18.8 97.9693 18.4379 98.8968 17.6263L98.2383 16.8737C97.5659 17.4621 96.5057 17.8 94.9676 17.8V18.8ZM98.9054 17.6186C99.829 16.7719 100.268 15.61 100.268 14.2H99.2676C99.2676 15.39 98.9061 16.2614 98.2297 16.8814L98.9054 17.6186ZM148.723 27.1H149.223V26.6H148.723V27.1ZM148.723 36V36.5H149.223V36H148.723ZM119.623 36H119.123V36.5H119.623V36ZM119.623 0.999998V0.499998H119.123V0.999998H119.623ZM148.073 0.999998H148.573V0.499998H148.073V0.999998ZM148.073 9.9V10.4H148.573V9.9H148.073ZM131.223 9.9V9.4H130.723V9.9H131.223ZM131.223 14H130.723V14.5H131.223V14ZM146.023 14H146.523V13.5H146.023V14ZM146.023 22.5V23H146.523V22.5H146.023ZM131.223 22.5V22H130.723V22.5H131.223ZM131.223 27.1H130.723V27.6H131.223V27.1ZM148.223 27.1V36H149.223V27.1H148.223ZM148.723 35.5H119.623V36.5H148.723V35.5ZM120.123 36V0.999998H119.123V36H120.123ZM119.623 1.5H148.073V0.499998H119.623V1.5ZM147.573 0.999998V9.9H148.573V0.999998H147.573ZM148.073 9.4H131.223V10.4H148.073V9.4ZM130.723 9.9V14H131.723V9.9H130.723ZM131.223 14.5H146.023V13.5H131.223V14.5ZM145.523 14V22.5H146.523V14H145.523ZM146.023 22H131.223V23H146.023V22ZM130.723 22.5V27.1H131.723V22.5H130.723ZM131.223 27.6H148.723V26.6H131.223V27.6ZM180.616 29.9L181.083 29.7203L180.959 29.4H180.616V29.9ZM167.316 29.9V29.4H166.973L166.849 29.7203L167.316 29.9ZM164.966 36V36.5H165.309L165.433 36.1797L164.966 36ZM152.966 36L152.508 35.7997L152.202 36.5H152.966V36ZM168.266 0.999998V0.499998H167.939L167.808 0.799726L168.266 0.999998ZM179.866 0.999998L180.324 0.799726L180.193 0.499998H179.866V0.999998ZM195.166 36V36.5H195.93L195.624 35.7997L195.166 36ZM182.966 36L182.499 36.1797L182.623 36.5H182.966V36ZM177.366 21.4V21.9H178.095L177.832 21.2198L177.366 21.4ZM173.966 12.6L174.432 12.4198L173.966 11.2126L173.5 12.4198L173.966 12.6ZM170.566 21.4L170.1 21.2198L169.837 21.9H170.566V21.4ZM180.616 29.4H167.316V30.4H180.616V29.4ZM166.849 29.7203L164.499 35.8203L165.433 36.1797L167.783 30.0797L166.849 29.7203ZM164.966 35.5H152.966V36.5H164.966V35.5ZM153.424 36.2003L168.724 1.20027L167.808 0.799726L152.508 35.7997L153.424 36.2003ZM168.266 1.5H179.866V0.499998H168.266V1.5ZM179.408 1.20027L194.708 36.2003L195.624 35.7997L180.324 0.799726L179.408 1.20027ZM195.166 35.5H182.966V36.5H195.166V35.5ZM183.433 35.8203L181.083 29.7203L180.149 30.0797L182.499 36.1797L183.433 35.8203ZM177.832 21.2198L174.432 12.4198L173.5 12.7802L176.9 21.5802L177.832 21.2198ZM173.5 12.4198L170.1 21.2198L171.032 21.5802L174.432 12.7802L173.5 12.4198ZM170.566 21.9H177.366V20.9H170.566V21.9ZM200.549 0.999998V0.499998H200.049V0.999998H200.549ZM228.099 3.15L227.882 3.60025L227.888 3.60309L228.099 3.15ZM235.049 9.2L234.624 9.46356L234.627 9.4674L235.049 9.2ZM235.049 27.8L234.627 27.5326L234.624 27.5365L235.049 27.8ZM228.099 33.9L228.313 34.3522L228.315 34.3512L228.099 33.9ZM200.549 36H200.049V36.5H200.549V36ZM223.349 24.65L223.695 25.0115L223.695 25.0113L223.349 24.65ZM223.349 12.4L223 12.7576L223.008 12.7653L223.349 12.4ZM212.349 10.2V9.7H211.849V10.2H212.349ZM212.349 26.8H211.849V27.3H212.349V26.8ZM200.549 1.5H217.799V0.499998H200.549V1.5ZM217.799 1.5C221.638 1.5 224.994 2.20513 227.882 3.60021L228.317 2.69979C225.271 1.2282 221.761 0.499998 217.799 0.499998V1.5ZM227.888 3.60309C230.806 4.96494 233.046 6.91852 234.624 9.46355L235.474 8.93645C233.786 6.21481 231.392 4.13506 228.311 2.69691L227.888 3.60309ZM234.627 9.4674C236.236 12.0097 237.049 15.014 237.049 18.5H238.049C238.049 14.8527 237.196 11.657 235.472 8.9326L234.627 9.4674ZM237.049 18.5C237.049 21.986 236.236 24.9903 234.627 27.5326L235.472 28.0674C237.196 25.343 238.049 22.1473 238.049 18.5H237.049ZM234.624 27.5365C233.045 30.0825 230.804 32.0536 227.884 33.4488L228.315 34.3512C231.394 32.8797 233.787 30.7841 235.474 28.0635L234.624 27.5365ZM227.886 33.4478C224.997 34.8109 221.639 35.5 217.799 35.5V36.5C221.759 36.5 225.268 35.7891 228.313 34.3522L227.886 33.4478ZM217.799 35.5H200.549V36.5H217.799V35.5ZM201.049 36V0.999998H200.049V36H201.049ZM217.299 27.3C219.931 27.3 222.082 26.5525 223.695 25.0115L223.004 24.2885C221.616 25.6141 219.734 26.3 217.299 26.3V27.3ZM223.695 25.0113C225.35 23.4286 226.149 21.2347 226.149 18.5H225.149C225.149 21.0319 224.416 22.9381 223.004 24.2887L223.695 25.0113ZM226.149 18.5C226.149 15.7658 225.35 13.5855 223.691 12.0347L223.008 12.7653C224.415 14.0811 225.149 15.9675 225.149 18.5H226.149ZM223.699 12.0425C222.087 10.4661 219.934 9.7 217.299 9.7V10.7C219.731 10.7 221.612 11.4006 223 12.7575L223.699 12.0425ZM217.299 9.7H212.349V10.7H217.299V9.7ZM211.849 10.2V26.8H212.849V10.2H211.849ZM212.349 27.3H217.299V26.3H212.349V27.3ZM271.448 10.15H271.948V9.65H271.448V10.15ZM261.198 10.15H260.698V10.65H261.198V10.15ZM261.198 0.999998V0.499998H260.698V0.999998H261.198ZM293.498 0.999998H293.998V0.499998H293.498V0.999998ZM293.498 10.15V10.65H293.998V10.15H293.498ZM283.248 10.15V9.65H282.748V10.15H283.248ZM283.248 36V36.5H283.748V36H283.248ZM271.448 36H270.948V36.5H271.448V36ZM271.448 9.65H261.198V10.65H271.448V9.65ZM261.698 10.15V0.999998H260.698V10.15H261.698ZM261.198 1.5H293.498V0.499998H261.198V1.5ZM292.998 0.999998V10.15H293.998V0.999998H292.998ZM293.498 9.65H283.248V10.65H293.498V9.65ZM282.748 10.15V36H283.748V10.15H282.748ZM283.248 35.5H271.448V36.5H283.248V35.5ZM271.948 36V10.15H270.948V36H271.948ZM334.563 0.999998H335.063V0.499998H334.563V0.999998ZM334.563 36V36.5H335.063V36H334.563ZM322.763 36H322.263V36.5H322.763V36ZM322.763 23.1H323.263V22.6H322.763V23.1ZM311.863 23.1V22.6H311.363V23.1H311.863ZM311.863 36V36.5H312.363V36H311.863ZM300.063 36H299.563V36.5H300.063V36ZM300.063 0.999998V0.499998H299.563V0.999998H300.063ZM311.863 0.999998H312.363V0.499998H311.863V0.999998ZM311.863 13.4H311.363V13.9H311.863V13.4ZM322.763 13.4V13.9H323.263V13.4H322.763ZM322.763 0.999998V0.499998H322.263V0.999998H322.763ZM334.063 0.999998V36H335.063V0.999998H334.063ZM334.563 35.5H322.763V36.5H334.563V35.5ZM323.263 36V23.1H322.263V36H323.263ZM322.763 22.6H311.863V23.6H322.763V22.6ZM311.363 23.1V36H312.363V23.1H311.363ZM311.863 35.5H300.063V36.5H311.863V35.5ZM300.563 36V0.999998H299.563V36H300.563ZM300.063 1.5H311.863V0.499998H300.063V1.5ZM311.363 0.999998V13.4H312.363V0.999998H311.363ZM311.863 13.9H322.763V12.9H311.863V13.9ZM323.263 13.4V0.999998H322.263V13.4H323.263ZM322.763 1.5H334.563V0.499998H322.763V1.5ZM372.848 27.1H373.348V26.6H372.848V27.1ZM372.848 36V36.5H373.348V36H372.848ZM343.748 36H343.248V36.5H343.748V36ZM343.748 0.999998V0.499998H343.248V0.999998H343.748ZM372.198 0.999998H372.698V0.499998H372.198V0.999998ZM372.198 9.9V10.4H372.698V9.9H372.198ZM355.348 9.9V9.4H354.848V9.9H355.348ZM355.348 14H354.848V14.5H355.348V14ZM370.148 14H370.648V13.5H370.148V14ZM370.148 22.5V23H370.648V22.5H370.148ZM355.348 22.5V22H354.848V22.5H355.348ZM355.348 27.1H354.848V27.6H355.348V27.1ZM372.348 27.1V36H373.348V27.1H372.348ZM372.848 35.5H343.748V36.5H372.848V35.5ZM344.248 36V0.999998H343.248V36H344.248ZM343.748 1.5H372.198V0.499998H343.748V1.5ZM371.698 0.999998V9.9H372.698V0.999998H371.698ZM372.198 9.4H355.348V10.4H372.198V9.4ZM354.848 9.9V14H355.848V9.9H354.848ZM355.348 14.5H370.148V13.5H355.348V14.5ZM369.648 14V22.5H370.648V14H369.648ZM370.148 22H355.348V23H370.148V22ZM354.848 22.5V27.1H355.848V22.5H354.848ZM355.348 27.6H372.848V26.6H355.348V27.6ZM413.631 24.4L414.03 24.0989L413.665 23.6143L413.259 24.0659L413.631 24.4ZM410.981 27.35L410.609 27.0159L410.481 27.1584V27.35H410.981ZM410.981 36V36.5H411.481V36H410.981ZM399.381 36H398.881V36.5H399.381V36ZM399.381 0.999998V0.499998H398.881V0.999998H399.381ZM410.981 0.999998H411.481V0.499998H410.981V0.999998ZM410.981 13.7H410.481V14.9971L411.352 14.0356L410.981 13.7ZM422.481 0.999998V0.499998H422.259L422.111 0.664388L422.481 0.999998ZM435.331 0.999998L435.701 1.33633L436.462 0.499998H435.331V0.999998ZM421.331 16.4L420.961 16.0637L420.683 16.3694L420.931 16.7L421.331 16.4ZM436.031 36V36.5H437.031L436.431 35.7L436.031 36ZM422.381 36L421.982 36.3011L422.132 36.5H422.381V36ZM413.259 24.0659L410.609 27.0159L411.353 27.6841L414.003 24.7341L413.259 24.0659ZM410.481 27.35V36H411.481V27.35H410.481ZM410.981 35.5H399.381V36.5H410.981V35.5ZM399.881 36V0.999998H398.881V36H399.881ZM399.381 1.5H410.981V0.499998H399.381V1.5ZM410.481 0.999998V13.7H411.481V0.999998H410.481ZM411.352 14.0356L422.852 1.33561L422.111 0.664388L410.611 13.3644L411.352 14.0356ZM422.481 1.5H435.331V0.499998H422.481V1.5ZM434.961 0.663661L420.961 16.0637L421.701 16.7363L435.701 1.33633L434.961 0.663661ZM420.931 16.7L435.631 36.3L436.431 35.7L421.731 16.1L420.931 16.7ZM436.031 35.5H422.381V36.5H436.031V35.5ZM422.78 35.6989L414.03 24.0989L413.232 24.7011L421.982 36.3011L422.78 35.6989ZM475.614 0.999998H476.114V0.499998H475.614V0.999998ZM475.614 36V36.5H476.114V36H475.614ZM465.914 36L465.53 36.3208L465.68 36.5H465.914V36ZM452.614 20.1L452.997 19.7792L452.114 18.723V20.1H452.614ZM452.614 36V36.5H453.114V36H452.614ZM441.114 36H440.614V36.5H441.114V36ZM441.114 0.999998V0.499998H440.614V0.999998H441.114ZM450.814 0.999998L451.197 0.679194L451.047 0.499998H450.814V0.999998ZM464.114 16.9L463.73 17.2208L464.614 18.277V16.9H464.114ZM464.114 0.999998V0.499998H463.614V0.999998H464.114ZM475.114 0.999998V36H476.114V0.999998H475.114ZM475.614 35.5H465.914V36.5H475.614V35.5ZM466.297 35.6792L452.997 19.7792L452.23 20.4208L465.53 36.3208L466.297 35.6792ZM452.114 20.1V36H453.114V20.1H452.114ZM452.614 35.5H441.114V36.5H452.614V35.5ZM441.614 36V0.999998H440.614V36H441.614ZM441.114 1.5H450.814V0.499998H441.114V1.5ZM450.43 1.3208L463.73 17.2208L464.497 16.5792L451.197 0.679194L450.43 1.3208ZM464.614 16.9V0.999998H463.614V16.9H464.614ZM464.114 1.5H475.614V0.499998H464.114V1.5ZM492.999 34.45L493.231 34.0068L492.999 34.45ZM485.949 27.95L485.522 28.2095L485.523 28.2118L485.949 27.95ZM485.949 9.1L486.375 9.36176L486.377 9.35949L485.949 9.1ZM513.299 2.55L513.531 2.10679L513.531 2.10679L513.299 2.55ZM520.349 9.1L519.922 9.35949L519.923 9.36176L520.349 9.1ZM520.349 27.95L520.775 28.2118L520.777 28.2095L520.349 27.95ZM513.299 34.45L513.531 34.8932L513.531 34.8932L513.299 34.45ZM507.099 26.2L507.356 26.6288L507.36 26.6266L507.099 26.2ZM509.949 23.15L510.389 23.3871L510.392 23.3824L509.949 23.15ZM509.949 13.9L509.506 14.1324L509.509 14.137L509.949 13.9ZM507.099 10.85L506.833 11.2733L506.84 11.2777L506.847 11.2819L507.099 10.85ZM499.149 10.85L499.406 11.2788L499.41 11.2766L499.149 10.85ZM496.349 13.9L496.789 14.1371L496.792 14.1324L496.349 13.9ZM496.349 23.15L495.906 23.3824L495.909 23.387L496.349 23.15ZM499.149 26.2L498.883 26.6233L498.89 26.6277L498.897 26.6319L499.149 26.2ZM503.149 36.3C499.454 36.3 496.151 35.5321 493.231 34.0068L492.768 34.8932C495.847 36.5012 499.311 37.3 503.149 37.3V36.3ZM493.231 34.0068C490.307 32.4801 488.026 30.3746 486.375 27.6882L485.523 28.2118C487.273 31.0587 489.691 33.2866 492.768 34.8932L493.231 34.0068ZM486.377 27.6905C484.727 24.9741 483.899 21.915 483.899 18.5H482.899C482.899 22.085 483.771 25.3259 485.522 28.2095L486.377 27.6905ZM483.899 18.5C483.899 15.0849 484.727 12.0436 486.375 9.36176L485.523 8.83824C483.771 11.6898 482.899 14.9151 482.899 18.5H483.899ZM486.377 9.35949C488.028 6.64012 490.309 4.51912 493.231 2.9932L492.768 2.10679C489.69 3.71421 487.271 5.95987 485.522 8.84051L486.377 9.35949ZM493.231 2.9932C496.151 1.4679 499.454 0.699999 503.149 0.699999V-0.300001C499.311 -0.300001 495.847 0.498761 492.768 2.10679L493.231 2.9932ZM503.149 0.699999C506.845 0.699999 510.147 1.4679 513.068 2.9932L513.531 2.10679C510.451 0.498761 506.987 -0.300001 503.149 -0.300001V0.699999ZM513.068 2.9932C515.99 4.51912 518.271 6.64012 519.922 9.35949L520.777 8.84051C519.028 5.95987 516.609 3.71421 513.531 2.10679L513.068 2.9932ZM519.923 9.36176C521.571 12.0436 522.399 15.0849 522.399 18.5H523.399C523.399 14.9151 522.527 11.6898 520.775 8.83824L519.923 9.36176ZM522.399 18.5C522.399 21.915 521.571 24.9741 519.922 27.6905L520.777 28.2095C522.527 25.3259 523.399 22.085 523.399 18.5H522.399ZM519.923 27.6882C518.273 30.3746 515.991 32.4801 513.068 34.0068L513.531 34.8932C516.607 33.2866 519.026 31.0587 520.775 28.2118L519.923 27.6882ZM513.068 34.0068C510.147 35.5321 506.845 36.3 503.149 36.3V37.3C506.987 37.3 510.451 36.5012 513.531 34.8932L513.068 34.0068ZM503.149 27.75C504.699 27.75 506.106 27.379 507.356 26.6287L506.842 25.7713C505.759 26.421 504.533 26.75 503.149 26.75V27.75ZM507.36 26.6266C508.639 25.8448 509.65 24.761 510.389 23.387L509.509 22.913C508.849 24.139 507.959 25.0885 506.838 25.7734L507.36 26.6266ZM510.392 23.3824C511.136 21.9659 511.499 20.3336 511.499 18.5H510.499C510.499 20.1997 510.163 21.6674 509.507 22.9176L510.392 23.3824ZM511.499 18.5C511.499 16.6668 511.136 15.0488 510.389 13.6629L509.509 14.137C510.163 15.3512 510.499 16.7999 510.499 18.5H511.499ZM510.392 13.6676C509.652 12.2584 508.639 11.1693 507.351 10.4181L506.847 11.2819C507.959 11.9307 508.846 12.8749 509.507 14.1324L510.392 13.6676ZM507.365 10.4267C506.114 9.63998 504.704 9.25 503.149 9.25V10.25C504.528 10.25 505.751 10.5933 506.833 11.2733L507.365 10.4267ZM503.149 9.25C501.595 9.25 500.17 9.63994 498.888 10.4234L499.41 11.2766C500.528 10.5934 501.77 10.25 503.149 10.25V9.25ZM498.892 10.4213C497.638 11.1734 496.644 12.262 495.907 13.6676L496.792 14.1324C497.454 12.8714 498.327 11.9266 499.406 11.2787L498.892 10.4213ZM495.909 13.6629C495.163 15.0488 494.799 16.6668 494.799 18.5H495.799C495.799 16.7999 496.136 15.3512 496.789 14.137L495.909 13.6629ZM494.799 18.5C494.799 20.3336 495.163 21.9659 495.907 23.3824L496.792 22.9176C496.136 21.6674 495.799 20.1997 495.799 18.5H494.799ZM495.909 23.387C496.647 24.7575 497.638 25.8407 498.883 26.6233L499.415 25.7767C498.327 25.0926 497.452 24.1425 496.789 22.913L495.909 23.387ZM498.897 26.6319C500.178 27.379 501.599 27.75 503.149 27.75V26.75C501.766 26.75 500.52 26.421 499.401 25.7681L498.897 26.6319ZM586.363 0.999998L586.839 1.15239L587.047 0.499998H586.363V0.999998ZM575.163 36V36.5H575.527L575.639 36.1524L575.163 36ZM562.513 36L562.034 36.1446L562.141 36.5H562.513V36ZM556.863 17.3L557.341 17.1554L556.875 15.6121L556.386 17.1484L556.863 17.3ZM550.913 36V36.5H551.278L551.389 36.1516L550.913 36ZM538.263 36L537.786 36.1524L537.898 36.5H538.263V36ZM527.063 0.999998V0.499998H526.378L526.586 1.15239L527.063 0.999998ZM539.213 0.999998L539.691 0.853461L539.582 0.499998H539.213V0.999998ZM545.313 20.9L544.834 21.0465L545.299 22.5627L545.788 21.0542L545.313 20.9ZM551.763 0.999998V0.499998H551.399L551.287 0.845833L551.763 0.999998ZM562.613 0.999998L563.091 0.855126L562.984 0.499998H562.613V0.999998ZM568.713 21.15L568.234 21.2949L568.699 22.8317L569.189 21.3024L568.713 21.15ZM575.163 0.999998V0.499998H574.798L574.686 0.847567L575.163 0.999998ZM585.886 0.84761L574.686 35.8476L575.639 36.1524L586.839 1.15239L585.886 0.84761ZM575.163 35.5H562.513V36.5H575.163V35.5ZM562.991 35.8554L557.341 17.1554L556.384 17.4446L562.034 36.1446L562.991 35.8554ZM556.386 17.1484L550.436 35.8484L551.389 36.1516L557.339 17.4516L556.386 17.1484ZM550.913 35.5H538.263V36.5H550.913V35.5ZM538.739 35.8476L527.539 0.84761L526.586 1.15239L537.786 36.1524L538.739 35.8476ZM527.063 1.5H539.213V0.499998H527.063V1.5ZM538.734 1.14653L544.834 21.0465L545.791 20.7535L539.691 0.853461L538.734 1.14653ZM545.788 21.0542L552.238 1.15416L551.287 0.845833L544.837 20.7458L545.788 21.0542ZM551.763 1.5H562.613V0.499998H551.763V1.5ZM562.134 1.14487L568.234 21.2949L569.191 21.0051L563.091 0.855126L562.134 1.14487ZM569.189 21.3024L575.639 1.15243L574.686 0.847567L568.236 20.9976L569.189 21.3024ZM575.163 1.5H586.363V0.499998H575.163V1.5ZM592.483 0.999998V0.499998H591.983V0.999998H592.483ZM604.283 0.999998H604.783V0.499998H604.283V0.999998ZM604.283 26.85H603.783V27.35H604.283V26.85ZM620.083 26.85H620.583V26.35H620.083V26.85ZM620.083 36V36.5H620.583V36H620.083ZM592.483 36H591.983V36.5H592.483V36ZM592.483 1.5H604.283V0.499998H592.483V1.5ZM603.783 0.999998V26.85H604.783V0.999998H603.783ZM604.283 27.35H620.083V26.35H604.283V27.35ZM619.583 26.85V36H620.583V26.85H619.583ZM620.083 35.5H592.483V36.5H620.083V35.5ZM592.983 36V0.999998H591.983V36H592.983ZM655.942 27.1H656.442V26.6H655.942V27.1ZM655.942 36V36.5H656.442V36H655.942ZM626.842 36H626.342V36.5H626.842V36ZM626.842 0.999998V0.499998H626.342V0.999998H626.842ZM655.292 0.999998H655.792V0.499998H655.292V0.999998ZM655.292 9.9V10.4H655.792V9.9H655.292ZM638.442 9.9V9.4H637.942V9.9H638.442ZM638.442 14H637.942V14.5H638.442V14ZM653.242 14H653.742V13.5H653.242V14ZM653.242 22.5V23H653.742V22.5H653.242ZM638.442 22.5V22H637.942V22.5H638.442ZM638.442 27.1H637.942V27.6H638.442V27.1ZM655.442 27.1V36H656.442V27.1H655.442ZM655.942 35.5H626.842V36.5H655.942V35.5ZM627.342 36V0.999998H626.342V36H627.342ZM626.842 1.5H655.292V0.499998H626.842V1.5ZM654.792 0.999998V9.9H655.792V0.999998H654.792ZM655.292 9.4H638.442V10.4H655.292V9.4ZM637.942 9.9V14H638.942V9.9H637.942ZM638.442 14.5H653.242V13.5H638.442V14.5ZM652.742 14V22.5H653.742V14H652.742ZM653.242 22H638.442V23H653.242V22ZM637.942 22.5V27.1H638.942V22.5H637.942ZM638.442 27.6H655.942V26.6H638.442V27.6ZM663.985 0.999998V0.499998H663.485V0.999998H663.985ZM691.535 3.15L691.317 3.60025L691.323 3.60309L691.535 3.15ZM698.485 9.2L698.06 9.46356L698.062 9.4674L698.485 9.2ZM698.485 27.8L698.062 27.5326L698.06 27.5365L698.485 27.8ZM691.535 33.9L691.748 34.3522L691.75 34.3512L691.535 33.9ZM663.985 36H663.485V36.5H663.985V36ZM686.785 24.65L687.13 25.0115L687.13 25.0113L686.785 24.65ZM686.785 12.4L686.435 12.7576L686.443 12.7653L686.785 12.4ZM675.785 10.2V9.7H675.285V10.2H675.785ZM675.785 26.8H675.285V27.3H675.785V26.8ZM663.985 1.5H681.235V0.499998H663.985V1.5ZM681.235 1.5C685.073 1.5 688.43 2.20513 691.317 3.60021L691.752 2.69979C688.706 1.2282 685.196 0.499998 681.235 0.499998V1.5ZM691.323 3.60309C694.242 4.96494 696.481 6.91852 698.06 9.46355L698.91 8.93645C697.222 6.21481 694.828 4.13506 691.746 2.69691L691.323 3.60309ZM698.062 9.4674C699.671 12.0097 700.485 15.014 700.485 18.5H701.485C701.485 14.8527 700.632 11.657 698.907 8.9326L698.062 9.4674ZM700.485 18.5C700.485 21.986 699.671 24.9903 698.062 27.5326L698.907 28.0674C700.632 25.343 701.485 22.1473 701.485 18.5H700.485ZM698.06 27.5365C696.481 30.0825 694.24 32.0536 691.319 33.4488L691.75 34.3512C694.83 32.8797 697.222 30.7841 698.91 28.0635L698.06 27.5365ZM691.321 33.4478C688.433 34.8109 685.075 35.5 681.235 35.5V36.5C685.195 36.5 688.703 35.7891 691.748 34.3522L691.321 33.4478ZM681.235 35.5H663.985V36.5H681.235V35.5ZM664.485 36V0.999998H663.485V36H664.485ZM680.735 27.3C683.367 27.3 685.517 26.5525 687.13 25.0115L686.439 24.2885C685.052 25.6141 683.169 26.3 680.735 26.3V27.3ZM687.13 25.0113C688.785 23.4286 689.585 21.2347 689.585 18.5H688.585C688.585 21.0319 687.851 22.9381 686.439 24.2887L687.13 25.0113ZM689.585 18.5C689.585 15.7658 688.785 13.5855 687.126 12.0347L686.443 12.7653C687.851 14.0811 688.585 15.9675 688.585 18.5H689.585ZM687.134 12.0425C685.522 10.4661 683.37 9.7 680.735 9.7V10.7C683.166 10.7 685.047 11.4006 686.435 12.7575L687.134 12.0425ZM680.735 9.7H675.785V10.7H680.735V9.7ZM675.285 10.2V26.8H676.285V10.2H675.285ZM675.785 27.3H680.735V26.3H675.785V27.3ZM731.943 17.55V17.05H731.443V17.55H731.943ZM742.193 17.55H742.693V17.05H742.193V17.55ZM742.193 32.35L742.478 32.7609L742.693 32.6117V32.35H742.193ZM716.893 34.5L716.66 34.9422L716.664 34.9442L716.893 34.5ZM709.893 28L709.464 28.2558L709.467 28.2618L709.893 28ZM709.893 9.05L709.466 8.79051L709.465 8.79199L709.893 9.05ZM716.943 2.55L717.171 2.99522L717.173 2.99424L716.943 2.55ZM736.393 1.95L736.195 2.40903L736.202 2.41187L736.393 1.95ZM743.193 6.95L743.524 7.32521L743.886 7.00653L743.58 6.63338L743.193 6.95ZM735.643 13.6L735.264 13.9254L735.594 14.3102L735.974 13.9752L735.643 13.6ZM721.593 12.1L721.951 12.4497L721.951 12.4497L721.593 12.1ZM721.543 24.85L721.179 25.192L721.182 25.196L721.543 24.85ZM731.943 26.4L732.135 26.8619L732.443 26.734V26.4H731.943ZM731.943 18.05H742.193V17.05H731.943V18.05ZM741.693 17.55V32.35H742.693V17.55H741.693ZM741.908 31.9391C739.893 33.337 737.545 34.415 734.858 35.1686L735.128 36.1314C737.908 35.3516 740.36 34.2297 742.478 32.7609L741.908 31.9391ZM734.858 35.1686C732.166 35.9239 729.528 36.3 726.943 36.3V37.3C729.626 37.3 732.355 36.9095 735.128 36.1314L734.858 35.1686ZM726.943 36.3C723.28 36.3 720.011 35.5483 717.123 34.0558L716.664 34.9442C719.709 36.5183 723.14 37.3 726.943 37.3V36.3ZM717.127 34.0579C714.237 32.5316 711.971 30.426 710.319 27.7382L709.467 28.2618C711.216 31.1073 713.617 33.3351 716.66 34.9421L717.127 34.0579ZM710.323 27.7443C708.706 25.0281 707.893 21.9512 707.893 18.5H706.893C706.893 22.1155 707.747 25.3719 709.464 28.2557L710.323 27.7443ZM707.893 18.5C707.893 15.0488 708.706 11.9896 710.322 9.308L709.465 8.79199C707.747 11.6438 706.893 14.8846 706.893 18.5H707.893ZM710.321 9.30949C711.971 6.59107 714.251 4.48763 717.171 2.99522L716.716 2.10478C713.636 3.67904 711.215 5.90893 709.466 8.79051L710.321 9.30949ZM717.173 2.99424C720.127 1.4682 723.464 0.699999 727.193 0.699999V-0.300001C723.323 -0.300001 719.826 0.498467 716.714 2.10575L717.173 2.99424ZM727.193 0.699999C730.57 0.699999 733.567 1.27352 736.195 2.40898L736.592 1.49101C733.819 0.293146 730.684 -0.300001 727.193 -0.300001V0.699999ZM736.202 2.41187C738.862 3.51498 741.061 5.13306 742.806 7.26662L743.58 6.63338C741.726 4.36694 739.391 2.65169 736.585 1.48813L736.202 2.41187ZM742.863 6.57479L735.313 13.2248L735.974 13.9752L743.524 7.32521L742.863 6.57479ZM736.023 13.2746C733.74 10.6114 730.99 9.25 727.793 9.25V10.25C730.663 10.25 733.147 11.4553 735.264 13.9254L736.023 13.2746ZM727.793 9.25C725.086 9.25 722.881 10.0698 721.236 11.7503L721.951 12.4497C723.373 10.9969 725.301 10.25 727.793 10.25V9.25ZM721.236 11.7503C719.591 13.431 718.793 15.7013 718.793 18.5H719.793C719.793 15.8987 720.529 13.9023 721.951 12.4497L721.236 11.7503ZM718.793 18.5C718.793 21.2333 719.575 23.4813 721.179 25.192L721.908 24.508C720.512 23.0187 719.793 21.0333 719.793 18.5H718.793ZM721.182 25.196C722.824 26.9088 724.995 27.75 727.643 27.75V26.75C725.225 26.75 723.33 25.9912 721.904 24.504L721.182 25.196ZM727.643 27.75C729.208 27.75 730.707 27.4541 732.135 26.8619L731.752 25.9381C730.447 26.4793 729.079 26.75 727.643 26.75V27.75ZM732.443 26.4V17.55H731.443V26.4H732.443ZM779.821 27.1H780.321V26.6H779.821V27.1ZM779.821 36V36.5H780.321V36H779.821ZM750.721 36H750.221V36.5H750.721V36ZM750.721 0.999998V0.499998H750.221V0.999998H750.721ZM779.171 0.999998H779.671V0.499998H779.171V0.999998ZM779.171 9.9V10.4H779.671V9.9H779.171ZM762.321 9.9V9.4H761.821V9.9H762.321ZM762.321 14H761.821V14.5H762.321V14ZM777.121 14H777.621V13.5H777.121V14ZM777.121 22.5V23H777.621V22.5H777.121ZM762.321 22.5V22H761.821V22.5H762.321ZM762.321 27.1H761.821V27.6H762.321V27.1ZM779.321 27.1V36H780.321V27.1H779.321ZM779.821 35.5H750.721V36.5H779.821V35.5ZM751.221 36V0.999998H750.221V36H751.221ZM750.721 1.5H779.171V0.499998H750.721V1.5ZM778.671 0.999998V9.9H779.671V0.999998H778.671ZM779.171 9.4H762.321V10.4H779.171V9.4ZM761.821 9.9V14H762.821V9.9H761.821ZM762.321 14.5H777.121V13.5H762.321V14.5ZM776.621 14V22.5H777.621V14H776.621ZM777.121 22H762.321V23H777.121V22ZM761.821 22.5V27.1H762.821V22.5H761.821ZM762.321 27.6H779.821V26.6H762.321V27.6Z" fill="#222222"/>
</svg>