<svg data-name="msblog logo" fill="none" xmlns="http://www.w3.org/2000/svg" viewBox="0 0 874.44 291.13">
    <path fill="#cab44b" d="M316.4,129.51v70.24a1.65,1.65,0,0,1-.82,1.43L160.18,290.9a1.65,1.65,0,0,1-2.48-1.43l-.1-70.17a1.65,1.65,0,0,1,.83-1.44l155.49-89.78A1.65,1.65,0,0,1,316.4,129.51Z"/>
    <path fill="#222" d="M316.4,1.65V71.89a1.67,1.67,0,0,1-.82,1.44L158.49,164a1.63,1.63,0,0,1-1.65,0L66.61,111.93a1.65,1.65,0,0,0-2.47,1.43V270.42a1.66,1.66,0,0,1-2.48,1.43L.83,236.73A1.65,1.65,0,0,1,0,235.3V2.28A1.66,1.66,0,0,1,2.48.85L156.84,90a1.67,1.67,0,0,0,1.65,0L313.92.22A1.65,1.65,0,0,1,316.4,1.65Z"/>
    <path fill="#222" d="M435.53,113.31l-.24-43.43-21.07,35.35h-10.3L383,71.05v42.26H361.54V31.36h19.08l28.8,47.3,28.1-47.3H456.6l.24,82Z"/>
    <path fill="#222" d="M482.71,112.49a47.27,47.27,0,0,1-15.22-6.56l7.61-17.09a49.47,49.47,0,0,0,12.76,5.86,48.67,48.67,0,0,0,14.28,2.22q13.35,0,13.35-6.67,0-3.51-3.8-5.21a70.43,70.43,0,0,0-12.24-3.57A117.36,117.36,0,0,1,484,77.19a26.06,26.06,0,0,1-10.66-7.31q-4.44-5-4.45-13.59A23.53,23.53,0,0,1,473,42.77q4.1-6,12.24-9.54t20-3.51a70.42,70.42,0,0,1,15.92,1.81,48.83,48.83,0,0,1,13.82,5.33l-7.15,17.21q-11.7-6.32-22.71-6.32-6.92,0-10.07,2a6.15,6.15,0,0,0-3.16,5.32q0,3.29,3.75,4.92a66.84,66.84,0,0,0,12.06,3.4,112.53,112.53,0,0,1,15.51,4.27A26.68,26.68,0,0,1,533.81,75q4.52,5,4.51,13.52a23.07,23.07,0,0,1-4.1,13.35q-4.1,6-12.29,9.54T502,115A75.69,75.69,0,0,1,482.71,112.49Z"/>
    <path fill="#977124" d="M618.22,78q4.39,5.22,4.39,13.41,0,10.53-7.78,16.21t-23,5.68H554.13V31.36h35.35q13.69,0,21.25,5.5t7.55,15.57A19.54,19.54,0,0,1,615,64a20.06,20.06,0,0,1-9.19,7.09Q613.83,72.81,618.22,78ZM562.79,38.5V68.24H588.9q9.95,0,15.33-3.81t5.39-11.06q0-7.26-5.39-11.07T588.9,38.5Zm45.54,63.92c3.75-2.49,5.62-6.4,5.62-11.7q0-15.34-22.24-15.34H562.79v30.79h28.92Q602.7,106.17,608.33,102.42Z"/>
    <path fill="#977124" d="M642.4,31.36h8.66v74.46H697v7.49H642.4Z"/>
    <path fill="#977124" d="M723.48,108.57A39.79,39.79,0,0,1,708,93.64a41.29,41.29,0,0,1-5.56-21.31A41.28,41.28,0,0,1,708,51,39.72,39.72,0,0,1,723.48,36.1a47.48,47.48,0,0,1,44-.06A39.86,39.86,0,0,1,782.89,51a41.26,41.26,0,0,1,5.62,21.36,41.27,41.27,0,0,1-5.62,21.37,39.86,39.86,0,0,1-15.39,14.93,47.48,47.48,0,0,1-44-.06Zm39.63-6.67A31.89,31.89,0,0,0,775.4,89.72a34.49,34.49,0,0,0,4.45-17.39A34.48,34.48,0,0,0,775.4,55a31.89,31.89,0,0,0-12.29-12.18,37.46,37.46,0,0,0-35.19,0A32.2,32.2,0,0,0,715.51,55,34.11,34.11,0,0,0,711,72.33a34.12,34.12,0,0,0,4.5,17.39,32.2,32.2,0,0,0,12.41,12.18,37.46,37.46,0,0,0,35.19,0Z"/>
    <path fill="#977124" d="M865.66,72.33H874v31.26a40,40,0,0,1-13.58,7.73A50.4,50.4,0,0,1,843.89,114a45.31,45.31,0,0,1-22.13-5.38A39.68,39.68,0,0,1,806.31,93.7a41.27,41.27,0,0,1-5.62-21.37A41.26,41.26,0,0,1,806.31,51,39.68,39.68,0,0,1,821.76,36,45.56,45.56,0,0,1,844,30.66a47.94,47.94,0,0,1,17.2,3,34.23,34.23,0,0,1,13.23,8.84L869.06,48q-9.72-9.6-24.7-9.6a36.9,36.9,0,0,0-18,4.39A32.31,32.31,0,0,0,813.8,55a33.77,33.77,0,0,0-4.57,17.38,33.46,33.46,0,0,0,4.57,17.33,33,33,0,0,0,12.53,12.18,36.1,36.1,0,0,0,17.91,4.45q12.64,0,21.42-6.33Z"/>
    <path fill="#222" d="M367.55,176.17a12.42,12.42,0,0,1-5-3l1.31-2.57a12.56,12.56,0,0,0,4.56,2.78,16.66,16.66,0,0,0,5.88,1.06q4.24,0,6.37-1.56a4.8,4.8,0,0,0,2.13-4,4,4,0,0,0-1.16-3,7.63,7.63,0,0,0-2.82-1.74,44.5,44.5,0,0,0-4.66-1.34,47.46,47.46,0,0,1-5.69-1.74,9.3,9.3,0,0,1-3.64-2.55,6.81,6.81,0,0,1-1.52-4.66,7.93,7.93,0,0,1,1.27-4.36,8.62,8.62,0,0,1,3.89-3.14,15.93,15.93,0,0,1,6.51-1.17,19.12,19.12,0,0,1,5.31.74,15.1,15.1,0,0,1,4.49,2.06l-1.13,2.66A16.1,16.1,0,0,0,375,148c-2.78,0-4.86.54-6.26,1.61a5,5,0,0,0-2.11,4.13,4.1,4.1,0,0,0,1.16,3.05,7.58,7.58,0,0,0,2.89,1.77c1.16.4,2.72.85,4.68,1.33a47.87,47.87,0,0,1,5.62,1.69,9.19,9.19,0,0,1,3.64,2.54,6.67,6.67,0,0,1,1.5,4.58,7.82,7.82,0,0,1-1.29,4.37,8.61,8.61,0,0,1-4,3.11,16.48,16.48,0,0,1-6.55,1.16A20.41,20.41,0,0,1,367.55,176.17Z"/>
    <path fill="#222" d="M411,154.58a10.87,10.87,0,0,1,4.25,4.28,12.7,12.7,0,0,1,1.54,6.28,12.84,12.84,0,0,1-1.54,6.33,11,11,0,0,1-4.23,4.27,12.16,12.16,0,0,1-6.08,1.51,11.21,11.21,0,0,1-5.22-1.2,9.85,9.85,0,0,1-3.82-3.5v13.24H392.7V153.25h3.08V158a9.81,9.81,0,0,1,3.82-3.61,11.1,11.1,0,0,1,5.35-1.27A12.33,12.33,0,0,1,411,154.58Zm-1.76,18.67a8.1,8.1,0,0,0,3.18-3.28,10.61,10.61,0,0,0,0-9.65,8.27,8.27,0,0,0-3.18-3.27,9.3,9.3,0,0,0-9.07,0,8.36,8.36,0,0,0-3.16,3.27,10.7,10.7,0,0,0,0,9.65,8.19,8.19,0,0,0,3.16,3.28,9.52,9.52,0,0,0,9.07,0Z"/>
    <path fill="#222" d="M429.79,154.29a11.49,11.49,0,0,1,5.54-1.22v3.12l-.77-.05a7.6,7.6,0,0,0-5.88,2.31,9.21,9.21,0,0,0-2.12,6.46V177h-3.21V153.25h3.07v4.66A7.75,7.75,0,0,1,429.79,154.29Z"/>
    <path fill="#222" d="M461.59,166.13H441.7a8.49,8.49,0,0,0,2.85,6,9.43,9.43,0,0,0,6.51,2.28,10.17,10.17,0,0,0,4.06-.79,8.76,8.76,0,0,0,3.21-2.32l1.81,2.07a10.09,10.09,0,0,1-3.95,2.9,13.48,13.48,0,0,1-5.22,1,13.18,13.18,0,0,1-6.49-1.56,11.35,11.35,0,0,1-4.41-4.31,12.37,12.37,0,0,1-1.58-6.24A12.75,12.75,0,0,1,440,158.9a10.94,10.94,0,0,1,4.16-4.29,11.6,11.6,0,0,1,5.95-1.54,11.44,11.44,0,0,1,5.92,1.54,10.83,10.83,0,0,1,4.11,4.27,12.79,12.79,0,0,1,1.49,6.26ZM444.34,158a8.61,8.61,0,0,0-2.64,5.72h16.86a8.58,8.58,0,0,0-2.65-5.72,8.74,8.74,0,0,0-11.57,0Z"/>
    <path fill="#222" d="M483,155.4q2.47,2.32,2.48,6.89V177h-3.07v-3.71a7.31,7.31,0,0,1-3.19,2.89,11,11,0,0,1-5,1,9.77,9.77,0,0,1-6.33-1.9,6.53,6.53,0,0,1-.16-9.9q2.19-1.84,7-1.85h7.55v-1.44a6.11,6.11,0,0,0-1.71-4.68,7.11,7.11,0,0,0-5-1.61,12.66,12.66,0,0,0-4.34.75,11,11,0,0,0-3.57,2l-1.45-2.39a12.79,12.79,0,0,1,4.34-2.37,16.85,16.85,0,0,1,5.33-.84Q480.49,153.07,483,155.4Zm-3.62,18.08a7.39,7.39,0,0,0,2.89-3.6V166h-7.45c-4.07,0-6.11,1.41-6.11,4.25a3.89,3.89,0,0,0,1.58,3.27,7.22,7.22,0,0,0,4.43,1.2A8.47,8.47,0,0,0,479.35,173.48Z"/>
    <path fill="#222" d="M516,143.49V177h-3.07v-4.7a9.93,9.93,0,0,1-3.82,3.66,11.25,11.25,0,0,1-5.36,1.26,12.06,12.06,0,0,1-6-1.53,11,11,0,0,1-4.25-4.3,13.57,13.57,0,0,1,0-12.56,10.8,10.8,0,0,1,4.25-4.28,12.26,12.26,0,0,1,6-1.51,11.21,11.21,0,0,1,5.22,1.2,9.86,9.86,0,0,1,3.82,3.5V143.49Zm-7.48,29.76a8.12,8.12,0,0,0,3.16-3.28,10.66,10.66,0,0,0,0-9.67,8.1,8.1,0,0,0-3.16-3.27,8.87,8.87,0,0,0-4.5-1.16,9,9,0,0,0-4.54,1.16,8.16,8.16,0,0,0-3.16,3.27,10.74,10.74,0,0,0,0,9.67,8.19,8.19,0,0,0,3.16,3.28A9,9,0,0,0,504,174.4,8.87,8.87,0,0,0,508.48,173.25Z"/>
    <path fill="#222" d="M549.27,175.58a6,6,0,0,1-2.23,1.24,8.93,8.93,0,0,1-2.78.43,6.29,6.29,0,0,1-7-6.91V156h-4.25v-2.71h4.25v-5.2h3.2v5.2h7.24V156H540.5v14.2a4.49,4.49,0,0,0,1.07,3.23,4,4,0,0,0,3,1.1,5.94,5.94,0,0,0,1.92-.31,4.58,4.58,0,0,0,1.6-.91Z"/>
    <path fill="#222" d="M574.34,155.67c1.76,1.73,2.64,4.26,2.64,7.57V177h-3.21V163.56a7.9,7.9,0,0,0-1.85-5.65,7,7,0,0,0-5.29-1.95,8.1,8.1,0,0,0-6.08,2.29,8.62,8.62,0,0,0-2.24,6.3V177H555.1V143.49h3.21v13.92a8.68,8.68,0,0,1,3.62-3.21,11.89,11.89,0,0,1,5.29-1.13A9.75,9.75,0,0,1,574.34,155.67Z"/>
    <path fill="#222" d="M606.49,166.13H586.61a8.52,8.52,0,0,0,2.84,6A9.47,9.47,0,0,0,596,174.4a10.19,10.19,0,0,0,4.07-.79,8.76,8.76,0,0,0,3.21-2.32l1.81,2.07a10.2,10.2,0,0,1-4,2.9,13.41,13.41,0,0,1-5.22,1,13.16,13.16,0,0,1-6.48-1.56,11.22,11.22,0,0,1-4.41-4.31,12.27,12.27,0,0,1-1.58-6.24,12.75,12.75,0,0,1,1.51-6.24,10.94,10.94,0,0,1,4.16-4.29,11.54,11.54,0,0,1,5.94-1.54,11.41,11.41,0,0,1,5.92,1.54,10.92,10.92,0,0,1,4.12,4.27,12.9,12.9,0,0,1,1.49,6.26ZM589.25,158a8.61,8.61,0,0,0-2.64,5.72h16.86a8.62,8.62,0,0,0-2.65-5.72,8.74,8.74,0,0,0-11.57,0Z"/>
    <path fill="#222" d="M633.75,165.09l-5.61,5.16V177h-3.21V143.49h3.21v22.73l14.2-13h4L636.14,163,647.26,177h-3.93Z"/>
    <path fill="#222" d="M671,155.67c1.76,1.73,2.64,4.26,2.64,7.57V177H670.4V163.56a7.85,7.85,0,0,0-1.85-5.65,6.94,6.94,0,0,0-5.29-1.95,8.11,8.11,0,0,0-6.08,2.29,8.61,8.61,0,0,0-2.23,6.3V177h-3.21V153.25h3.07v4.39a8.91,8.91,0,0,1,3.64-3.37,11.61,11.61,0,0,1,5.4-1.2A9.73,9.73,0,0,1,671,155.67Z"/>
    <path fill="#222" d="M686,175.69a11.51,11.51,0,0,1-4.34-4.31,13.11,13.11,0,0,1,0-12.48,11.25,11.25,0,0,1,4.34-4.29,13.23,13.23,0,0,1,12.39,0,10.91,10.91,0,0,1,4.31,4.29,13.26,13.26,0,0,1,0,12.48,11.16,11.16,0,0,1-4.31,4.31,13.08,13.08,0,0,1-12.39,0Zm10.74-2.44a8,8,0,0,0,3.14-3.28,10.91,10.91,0,0,0,0-9.67,8,8,0,0,0-3.14-3.27,9.48,9.48,0,0,0-9.09,0,8.16,8.16,0,0,0-3.16,3.27,10.74,10.74,0,0,0,0,9.67,8.19,8.19,0,0,0,3.16,3.28,9.56,9.56,0,0,0,9.09,0Z"/>
    <path fill="#222" d="M745,153.25,736,177h-3l-7.5-19.49L718,177h-3L706,153.25h3.07l7.46,20.2,7.64-20.2h2.75l7.6,20.2,7.55-20.2Z"/>
    <path fill="#222" d="M749.82,143.49H753V177h-3.21Z"/>
    <path fill="#222" d="M782.68,166.13H762.79a8.49,8.49,0,0,0,2.85,6,9.47,9.47,0,0,0,6.51,2.28,10.26,10.26,0,0,0,4.07-.79,8.81,8.81,0,0,0,3.2-2.32l1.81,2.07a10.09,10.09,0,0,1-4,2.9,13.41,13.41,0,0,1-5.22,1,13.2,13.2,0,0,1-6.49-1.56,11.35,11.35,0,0,1-4.41-4.31,12.37,12.37,0,0,1-1.58-6.24,12.75,12.75,0,0,1,1.52-6.24,10.87,10.87,0,0,1,4.16-4.29,12.19,12.19,0,0,1,11.86,0,10.83,10.83,0,0,1,4.11,4.27,12.79,12.79,0,0,1,1.49,6.26ZM765.44,158a8.58,8.58,0,0,0-2.65,5.72h16.86A8.61,8.61,0,0,0,777,158a8.17,8.17,0,0,0-5.81-2.19A8.08,8.08,0,0,0,765.44,158Z"/>
    <path fill="#222" d="M811,143.49V177H807.9v-4.7a9.87,9.87,0,0,1-3.82,3.66,11.24,11.24,0,0,1-5.35,1.26,12.13,12.13,0,0,1-6.06-1.53,11,11,0,0,1-4.25-4.3,13.57,13.57,0,0,1,0-12.56,10.8,10.8,0,0,1,4.25-4.28,12.33,12.33,0,0,1,6.06-1.51,11.27,11.27,0,0,1,5.22,1.2,9.83,9.83,0,0,1,3.81,3.5V143.49Zm-7.48,29.76a8.21,8.21,0,0,0,3.17-3.28,10.74,10.74,0,0,0,0-9.67,8.18,8.18,0,0,0-3.17-3.27,8.86,8.86,0,0,0-4.49-1.16,9,9,0,0,0-4.55,1.16,8.16,8.16,0,0,0-3.16,3.27,10.74,10.74,0,0,0,0,9.67,8.19,8.19,0,0,0,3.16,3.28A9,9,0,0,0,799,174.4,8.85,8.85,0,0,0,803.49,173.25Z"/>
    <path fill="#222" d="M841.94,153.25v20.88q0,6.06-3,9T830.05,186a19.86,19.86,0,0,1-6.26-1,13,13,0,0,1-4.82-2.69l1.63-2.44a12.3,12.3,0,0,0,4.18,2.39,15.43,15.43,0,0,0,5.18.86q4.51,0,6.64-2.1t2.13-6.53v-3a9.76,9.76,0,0,1-3.91,3.44,12.17,12.17,0,0,1-5.36,1.17,12.63,12.63,0,0,1-6.08-1.47,10.88,10.88,0,0,1-4.29-4.11,12.24,12.24,0,0,1,0-12,10.77,10.77,0,0,1,4.27-4.06,12.7,12.7,0,0,1,6.1-1.45,12.11,12.11,0,0,1,5.47,1.22,9.76,9.76,0,0,1,3.93,3.53v-4.57Zm-7.51,18.92a7.91,7.91,0,0,0,3.23-3.1,8.84,8.84,0,0,0,1.16-4.52,8.72,8.72,0,0,0-1.16-4.5,8,8,0,0,0-3.21-3.07,10.4,10.4,0,0,0-9.31,0,7.85,7.85,0,0,0-3.21,3.07,9.46,9.46,0,0,0,0,9,8,8,0,0,0,3.21,3.1,10.36,10.36,0,0,0,9.29,0Z"/>
    <path fill="#222" d="M871.63,166.13H851.74a8.49,8.49,0,0,0,2.85,6,9.47,9.47,0,0,0,6.51,2.28,10.22,10.22,0,0,0,4.07-.79,8.93,8.93,0,0,0,3.21-2.32l1.8,2.07a10.09,10.09,0,0,1-3.95,2.9,13.41,13.41,0,0,1-5.22,1,13.23,13.23,0,0,1-6.49-1.56,11.26,11.26,0,0,1-4.4-4.31,12.27,12.27,0,0,1-1.59-6.24,12.75,12.75,0,0,1,1.52-6.24,10.87,10.87,0,0,1,4.16-4.29,12.19,12.19,0,0,1,11.86,0,10.83,10.83,0,0,1,4.11,4.27,12.8,12.8,0,0,1,1.5,6.26ZM854.39,158a8.58,8.58,0,0,0-2.65,5.72H868.6A8.61,8.61,0,0,0,866,158a8.74,8.74,0,0,0-11.57,0Z"/>
</svg>